<?xml version="1.0" encoding="UTF-8" standalone="no"?><!-- Generator: Gravit.io --><svg xmlns="http://www.w3.org/2000/svg" xmlns:xlink="http://www.w3.org/1999/xlink" style="isolation:isolate" viewBox="0 0 1366 768" width="1366pt" height="768pt"><defs><clipPath id="_clipPath_WWrgt07tmmPFRliTcw7EmjhJICeuHBUF"><rect width="1366" height="768"/></clipPath></defs><g clip-path="url(#_clipPath_WWrgt07tmmPFRliTcw7EmjhJICeuHBUF)"><rect x="-1" y="0" width="1368.5" height="768" transform="matrix(1,0,0,1,0,0)" fill="rgb(0,0,0)"/><g><g><linearGradient id="_lgradient_2" x1="0.5197649572649572" y1="-0.14031746031745995" x2="0.485424297924298" y2="1.026349206349207" gradientTransform="matrix(654.098,0,0,419.294,356.201,174.353)" gradientUnits="userSpaceOnUse"><stop offset="0%" stop-opacity="1" style="stop-color:rgb(255,255,255)"/><stop offset="100%" stop-opacity="1" style="stop-color:rgb(0,0,0)"/></linearGradient><path d=" M 896.491 593.647 L 776.693 309.126 L 656.894 593.647 L 543.086 593.647 L 626.346 395.381 L 589.807 309.126 L 470.009 593.647 L 356.201 593.647 L 532.903 174.353 L 646.712 174.353 L 683.25 260.608 L 719.788 174.353 L 833.597 174.353 L 1010.299 593.647 L 896.491 593.647 Z " fill="url(#_lgradient_2)" fill-opacity="0.4"/><path d=" M 805.113 241.001 C 814.801 235.627 823.1 226.341 823.1 216.689 C 823.1 205.1 812.973 195.192 800.433 195.192 C 787.893 195.192 777.876 204.697 777.876 215.373 L 790.598 219.577 C 790.598 214.276 795.205 209.962 800.396 209.962 C 804.308 209.962 807.379 213.362 807.379 217.311 C 807.379 222.794 798.897 230.947 776.523 249.702 L 776.523 255.369 L 823.795 255.369 L 823.795 241.001 L 805.113 241.001 Z " fill="rgb(0,0,0)"/></g></g></g></svg>